<svg xmlns="http://www.w3.org/2000/svg" width="60" height="60" viewBox="0 0 918 918"><path d="M688 245c-34-14-64-21-92-21 -12 0-22 1-32 3 16-6 34-13 55-18 23-6 45-16 66-31 17-12 32-28 46-46 25-32 39-64 46-81 4-9 3-19-2-28 -5-8-13-14-23-16C738 4 708 0 674 0c-54 0-99 10-133 31 -21 13-38 40-52 84 -3 10-6 20-9 32 0-6-1-11-1-16 -3-40-6-58-9-68 -1-3-2-5-2-7C457 30 437 16 413 16c-13 0-26 4-36 12 -12 9-19 22-19 35 0 25 15 38 25 46 3 3 6 5 8 7 3 8 11 43 24 128 -9-2-18-5-28-8 -24-7-49-14-79-14 -25 0-50 5-76 16 -48 20-89 57-116 109 -23 42-36 93-36 138 0 30 7 68 21 109 14 42 33 85 57 125 26 45 55 84 87 116 36 37 74 63 113 79 8 3 17 5 27 5 17 0 34-5 49-10 11-3 21-7 28-7 3 0 6 0 10 1 8 1 16 4 25 6 15 4 31 8 45 8 6 0 11-1 17-2 43-12 83-36 121-72 33-31 63-70 89-116C811 646 840 552 840 485c0-50-10-94-29-131C786 305 744 269 688 245zM670 814c-1 1-2 2-3 4 -1 1-1 1-2 2 -1 1-3 3-4 4 0 1-1 1-2 2 -2 2-4 3-5 5 -8 8-17 15-26 21 -13 10-27 18-42 25 -1 1-2 1-4 2 -2 1-5 2-7 3 -9 4-17 7-26 9l0 0c-1 0-1 0-2 1 0 0 0 0-1 0 0 0-1 0-2 0 0 0-1 0-1 0 0 0-1 0-1 0 0 0-1 0-1 0 0 0-1 0-1 0s-1 0-1 0c0 0-1 0-1 0 -1 0-1 0-2 0 0 0 0 0-1 0 -1 0-2 0-2 0 0 0 0 0 0 0 -1 0-1 0-2 0 0 0-1 0-1 0 -1 0-1 0-2 0 0 0-1 0-1 0 0 0-1 0-2 0 0 0-1 0-1 0 -1 0-1 0-2 0 0 0-1 0-1 0 -1 0-1 0-2 0 0 0-1 0-1 0 -1 0-2 0-2-1 0 0 0 0 0 0 -1 0-2 0-3-1 0 0-1 0-1 0 -1 0-1 0-2 0 0 0-1 0-1 0 -1 0-1 0-2 0 0 0-1 0-1 0 -1 0-1 0-2 0 0 0-1 0-1 0 -1 0-1 0-2 0 -1 0-2 0-2-1 0 0-1 0-1 0 -1 0-2 0-3-1 0 0 0 0-1 0 -1 0-1 0-2 0 0 0-1 0-1 0 -1 0-1 0-2 0 0 0-1 0-1 0 -1 0-1 0-2 0 0 0-1 0-1 0 -1 0-1 0-2 0 0 0-1 0-1 0 -1 0-1 0-2 0C479 880 479 880 479 879c-1 0-2 0-3 0 0 0 0 0 0 0 -1 0-1 0-2 0 0 0-1 0-1 0 -1 0-1 0-2 0 0 0-1 0-1 0 0 0 0 0 0 0 0 0-1 0-1 0 0 0-1 0-1 0 0 0-1 0-2 0 0 0-1 0-1 0 -1 0-1 0-2 0 0 0-1 0-1 0 -1 0-2 0-2 0l0 0 0 0c-1 0-2 0-2 0 0 0 0 0-1 0 -1 0-1 0-2 0 0 0-1 0-1 0 -1 0-1 0-2 0 0 0-1 0-1 0 -1 0-1 0-2 0 0 0 0 0 0 0 -1 0-2 0-3 1 0 0 0 0-1 0 -1 0-1 0-2 0 0 0-1 0-1 0 -1 0-1 0-2 0 0 0-1 0-1 0 -1 0-1 0-2 1 0 0 0 0-1 0 -1 0-2 1-3 1 0 0-1 0-1 0 -1 0-1 0-2 1 0 0-1 0-1 0 -1 0-1 0-2 1 0 0-1 0-1 0 -1 0-1 0-2 1 -1 0-2 1-4 1H422c-1 0-2 1-3 1 0 0 0 0-1 0 -1 0-1 0-2 1 0 0-1 0-1 0 -1 0-1 0-2 1 0 0-1 0-1 0 -1 0-2 1-3 1 0 0 0 0 0 0 -1 0-2 1-3 1 0 0-1 0-1 0 -1 0-1 0-2 1 0 0-1 0-1 0 -1 0-1 0-2 1 0 0-1 0-1 0 -1 0-2 0-3 1 0 0 0 0 0 0 -1 0-2 0-3 1 0 0 0 0-1 0 -1 0-1 0-2 0 0 0-1 0-1 0 -1 0-1 0-2 0 0 0-1 0-1 0 -1 0-1 0-2 0 0 0 0 0 0 0 -1 0-2 0-3 0 0 0 0 0-1 0 -1 0-1 0-2 0 0 0-1 0-1 0 -1 0-1 0-2 0 0 0 0 0-1 0 -1 0-2 0-3 0 0 0 0 0 0 0 -1 0-1 0-2 0 0 0 0 0-1 0 -1 0-1 0-2 0 0 0 0 0-1 0 -1 0-2-1-3-1l0 0c-8-3-16-7-24-11 -2-1-5-2-7-4 -2-1-4-3-7-4 -3-2-7-4-10-6 -2-1-4-3-7-5 -1-1-2-2-3-2 -2-2-4-3-6-5 -13-10-25-21-37-33 -2-2-4-4-6-6 -5-5-10-10-14-16 -5-5-9-11-14-16 -4-4-7-9-11-14 -2-2-3-5-5-7 -2-2-3-5-5-7 -1-1-2-2-2-4 -5-7-10-14-15-22 -2-2-3-5-5-7 -1-1-1-2-2-4 -2-4-4-7-7-11 -4-6-7-13-11-19 -5-9-11-27-12-28V439c0-5 4-8 9-8H177c6 0 7-4 7-10v-20c0-5 5-10 10-10h43c6 0 10 5 10 10V420c0 6 5 10 10 10h8c6 0 10 5 10 10v364c0 6 5 10 10 10h1c6 0 10-4 10-10v-43c0-5 5-10 10-10h44c6 0 10-4 10-10V592c0-2 1-5 3-7l31-29c4-4 8-4 12 0l32 29c2 2 3 5 3 7v197c0 10 12 14 18 6l11-13 14-17c3-4 8-4 11 0l36 45c6 7 15 3 15-6 0-78 0-288 0-288 0-5 4-8 9-8h6c6 0 13-4 13-10v-72c0-5 5-10 10-10h5c6 0 10-4 10-10v-80c0-5 5-10 10-10h2c6 0 10 5 10 10v81c0 6 5 10 10 10h5c6 0 10 5 10 10v72c0 6 5 10 10 10h7c6 0 10 5 10 10L670 814 670 814zM755 694c0 0 0 1-1 1 -3 5-5 10-8 15 -2 4-4 8-7 11C738 725 736 728 734 731c-1 1-1 2-2 3 -1 2-2 4-4 6 -1 1-2 3-3 4 -1 2-2 3-3 5 -1 1-2 3-3 4 -1 2-2 3-3 5 -1 2-2 3-3 4 -1 1-2 3-3 4 -1 2-2 3-3 5 -1 1-2 3-3 4 -1 2-2 3-3 5 -1 1-2 3-3 4 -1 2-2 3-4 4 -1 1-1 2-2 3v-330c0-5 5-10 10-10H745c6 0 10 5 10 10L755 694 755 694z"/></svg>
